<svg width="410" height="404" viewBox="0 0 410 404" fill="none" xmlns="http://www.w3.org/2000/svg">
<path d="M399.641 59.5246L215.643 388.545C211.844 395.338 201.575 395.378 197.731 388.618L10.5817 59.5563C6.38087 52.1896 12.6802 43.2665 21.0281 44.7586L205.223 77.6824C206.398 77.8924 207.601 77.8904 208.776 77.6763L389.119 44.8058C397.439 43.2894 403.768 52.1434 399.641 59.5246Z" fill="url(#paint0_linear)"/>
<path d="M292.965 1.5744L156.801 28.2552C154.563 28.6937 152.906 30.5903 152.771 32.8664L144.34 174.33C144.191 176.873 146.539 178.87 149.048 178.237L188.42 168.306C191.048 167.639 193.516 169.746 193.095 172.422L183.18 234.352C182.742 237.121 185.61 239.264 188.137 238.253L212.693 228.428C215.23 227.413 218.111 229.573 217.645 232.354L201.651 331.006C200.931 335.265 206.454 337.534 208.674 333.777L210.5 330.654L323.905 102.316C325.211 99.6813 323.119 96.6643 320.21 97.1914L279.52 104.621C276.839 105.101 274.621 102.6 275.474 99.9936L304.439 11.0363C305.303 8.39446 303.025 5.83579 300.313 6.35397Z" fill="url(#paint1_linear)"/>
<defs>
<linearGradient id="paint0_linear" x1="6.00017" y1="32.9999" x2="235" y2="344" gradientUnits="userSpaceOnUse">
<stop stop-color="#41D1FF"/>
<stop offset="1" stop-color="#BD34FE"/>
</linearGradient>
<linearGradient id="paint1_linear" x1="194.651" y1="8.81818" x2="236.076" y2="292.989" gradientUnits="userSpaceOnUse">
<stop stop-color="#FFEA83"/>
<stop offset="0.0833333" stop-color="#FFDD35"/>
<stop offset="1" stop-color="#FFA800"/>
</linearGradient>
</defs>
</svg>
